<svg width="87" height="87" viewBox="0 0 87 87" fill="none" xmlns="http://www.w3.org/2000/svg">
<rect width="87" height="87" fill="#FF5A44" fill-opacity="0.1"/>
<g clip-path="url(#clip0)">
<path d="M75.7734 79.8627V85.5741C75.7734 86.3617 75.1351 87 74.3476 87H12.6524C11.8649 87 11.2266 86.3617 11.2266 85.5741V79.8464C11.2281 78.8276 11.4563 77.7977 11.885 76.8921C12.0114 76.6211 12.1558 76.3597 12.3147 76.108C13.1532 74.7883 14.4327 73.756 15.9864 73.2381L18.6559 72.3469L33.8789 67.268C35.4115 66.7567 36.4452 65.3221 36.4452 63.7063V55.1843H50.5547V63.781C50.5547 65.401 51.5927 66.8392 53.1301 67.3472L63.4024 70.7382V70.7397L68.3295 72.3662L70.9941 73.2476C73.8079 74.1761 75.72 76.7829 75.7719 79.7372C75.7734 79.7798 75.7734 79.8204 75.7734 79.8627Z" fill="#B6C4CF"/>
<path d="M75.7719 79.7377C75.72 76.7834 73.8078 74.1766 70.9941 73.2481L68.3295 72.3667L63.4025 70.7402C63.4025 70.7402 63.4025 70.7402 63.4025 70.7387L53.1302 67.3477C51.5927 66.8397 50.5548 65.4015 50.5548 63.7815V55.1848H46.9868V63.7815C46.9868 65.4015 48.0248 66.8397 49.5622 67.3477L63.4528 71.935L67.4262 73.2482C70.24 74.1767 72.152 76.7836 72.2039 79.7379C72.2055 79.7801 72.2055 79.8206 72.2055 79.8629V87H74.3474C75.135 87 75.7733 86.3617 75.7733 85.5742V79.8627C75.7735 79.8205 75.7735 79.7798 75.7719 79.7377Z" fill="#9FACBA"/>
<path d="M63.4476 71.498C63.4476 73.0579 62.8816 74.5529 61.842 75.9377C61.2679 76.7039 60.5479 77.4359 59.6996 78.1242C57.8459 79.6338 55.3792 80.9421 52.468 81.9681C48.1217 83.5004 42.7828 84.403 37.0125 84.403C25.7412 84.403 16.1158 80.9602 12.3145 76.1082C13.1529 74.7885 14.4325 73.7562 15.9862 73.2383L18.6557 72.3471L33.8794 67.268C35.412 66.7567 36.445 65.3218 36.445 63.7065V55.1844H50.5545V63.7812C50.5545 65.4012 51.5925 66.8394 53.1299 67.3474L63.4022 70.7383V70.7399C63.433 70.9916 63.4476 71.2432 63.4476 71.498Z" fill="#9FACBA"/>
<path d="M69.9347 67.9269C69.9347 69.4868 69.3686 70.9818 68.3291 72.3666C66.498 74.8062 63.1993 76.9019 58.9551 78.3969C54.6087 79.9293 49.2699 80.8318 43.4996 80.8318C32.0806 80.8318 22.3516 77.2981 18.6555 72.3471C17.6256 70.969 17.0645 69.4805 17.0645 67.9271C17.0645 65.8883 18.0327 63.9598 19.7582 62.2457C21.1887 60.8237 21.933 58.8628 21.9298 56.8435V27.5894C21.9298 20.827 25.0355 14.7917 29.8993 10.8327C33.6278 7.79706 38.3896 5.98231 43.576 6.00019C55.4977 6.04085 65.0695 15.8922 65.0695 27.823V56.8434C65.0661 58.8627 65.8106 60.8236 67.2411 62.2455C68.9666 63.9596 69.9347 65.8881 69.9347 67.9269Z" fill="#BF526B"/>
<path d="M68.3298 72.3666C66.6075 74.6618 63.5861 76.652 59.7003 78.1242C59.4554 78.2184 59.2074 78.3076 58.9558 78.397C54.6095 79.9293 49.2706 80.8319 43.5003 80.8319C32.0814 80.8319 22.3523 77.2981 18.6562 72.3471L33.88 67.268C35.4125 66.7567 36.4456 65.3218 36.4456 63.7065V55.1844H50.5551V63.7812C50.5551 65.4012 51.593 66.8394 53.1305 67.3474L63.4027 70.7383V70.7399L68.3298 72.3666Z" fill="#BF526B"/>
<path d="M41.7924 10.7077C53.7135 10.749 63.2859 20.599 63.2859 32.531V61.5151V61.5506C63.2826 63.5694 64.0263 65.5314 65.4576 66.9537C67.1715 68.6571 68.1381 70.5718 68.1502 72.5965C69.3022 71.1483 69.9352 69.5738 69.9352 67.9269C69.9352 65.8883 68.9662 63.9603 67.2414 62.2463C65.8102 60.8239 65.0665 58.8619 65.0698 56.8432C65.0698 56.8314 65.0698 56.8197 65.0698 56.8078V27.8237C65.0698 15.8917 55.4974 6.04167 43.5763 6.00038C33.4396 5.96526 24.9234 12.9297 22.5742 22.3391C26.1814 15.4065 33.4363 10.6788 41.7924 10.7077Z" fill="#B1526A"/>
<path d="M59.5559 33.6504V42.4679C59.5559 51.3437 52.3683 58.538 43.5004 58.538C34.6325 58.538 27.4448 51.3437 27.4448 42.4679V33.6504C27.4448 32.493 27.5665 31.3649 27.8 30.279C29.3472 23.0214 35.7889 17.5803 43.5004 17.5803C47.9343 17.5803 51.9483 19.3789 54.8529 22.2877C56.9532 24.3899 58.4743 27.0714 59.1555 30.0728C59.4181 31.2238 59.5559 32.4201 59.5559 33.6504Z" fill="#FFCEBF"/>
<path d="M43.3375 26.2769C49.4735 26.2769 55.028 28.7658 59.0476 32.7912C59.2183 32.9621 59.3857 33.1361 59.5507 33.3124C59.5277 32.2008 59.3934 31.1179 59.1548 30.0728C58.4736 27.0714 56.9525 24.3899 54.8522 22.2877C51.9476 19.3789 47.9337 17.5803 43.4997 17.5803C35.7881 17.5803 29.3464 23.0214 27.7993 30.279C27.6125 31.148 27.4986 32.0445 27.46 32.9608C31.4929 28.8366 37.1162 26.2769 43.3375 26.2769Z" fill="#FFB09E"/>
<path d="M43.5 50.8829C40.1823 50.8829 38.2069 48.6067 37.8447 48.1503C37.4268 47.6239 37.5142 46.8582 38.0401 46.4398C38.5658 46.0213 39.3311 46.109 39.749 46.6353C39.8965 46.8207 41.2532 48.4479 43.5 48.4479C45.7468 48.4479 47.1036 46.8207 47.251 46.6353C47.6688 46.1087 48.4342 46.0212 48.9599 46.4398C49.486 46.8581 49.5733 47.6239 49.1553 48.1503C48.7932 48.6067 46.8177 50.8829 43.5 50.8829Z" fill="#FE99A0"/>
<path d="M59.1553 30.0728C55.1463 26.1284 49.6484 23.6934 43.5814 23.6934C37.4105 23.6934 31.8267 26.2127 27.7998 30.279C29.347 23.0214 35.7887 17.5803 43.5002 17.5803C47.9342 17.5803 51.9481 19.3789 54.8527 22.2877C56.9528 24.3899 58.4741 27.0714 59.1553 30.0728Z" fill="#B6C4CF"/>
<path d="M39.2935 71.711C38.0227 71.711 36.6139 71.5539 35.1342 71.1256C32.8513 70.4646 30.7175 69.2446 28.9637 67.5974C28.4739 67.1372 28.4492 66.3667 28.9089 65.8765C29.3685 65.3863 30.1383 65.3615 30.6283 65.8216C32.103 67.2066 33.895 68.2319 35.8102 68.7863C39.0814 69.7334 41.9487 69.0987 43.3663 68.636C44.0042 68.4275 44.6914 68.7769 44.8998 69.4162C45.1078 70.0554 44.759 70.7426 44.1203 70.951C43.076 71.2919 41.369 71.711 39.2935 71.711Z" fill="#B1526A"/>
</g>
<defs>
<clipPath id="clip0">
<rect width="81" height="81" fill="white" transform="translate(3 6)"/>
</clipPath>
</defs>
</svg>
